HIERARCHY
ROOT root
{
	OFFSET 0.000000 0.000000 0.000000
	CHANNELS 6 Xposition Yposition Zposition Zrotation Yrotation Xrotation
	JOINT lhip
	{
		OFFSET 0.058581 -0.082280 -0.017664
		CHANNELS 3 Zrotation Yrotation Xrotation
		JOINT lknee
		{
			OFFSET 0.043451 -0.386469 0.008037
			CHANNELS 3 Zrotation Yrotation Xrotation
			JOINT lankle
			{
				OFFSET -0.014790 -0.426874 -0.037428
				CHANNELS 3 Zrotation Yrotation Xrotation
				JOINT ltoe
				{
					OFFSET 0.041054 -0.060286 0.122042
					CHANNELS 3 Zrotation Yrotation Xrotation
					End Site
					{
						OFFSET 0.000000 0.000000 0.000000
					}
				}
			}
		}
	}
	JOINT rhip
	{
		OFFSET -0.060310 -0.090513 -0.013543
		CHANNELS 3 Zrotation Yrotation Xrotation
		JOINT rknee
		{
			OFFSET -0.043257 -0.383688 -0.004843
			CHANNELS 3 Zrotation Yrotation Xrotation
			JOINT rankle
			{
				OFFSET 0.019056 -0.420046 -0.034562
				CHANNELS 3 Zrotation Yrotation Xrotation
				JOINT rtoe
				{
					OFFSET -0.034840 -0.062106 0.130323
					CHANNELS 3 Zrotation Yrotation Xrotation
					End Site
					{
						OFFSET 0.000000 0.000000 0.000000
					}
				}
			}
		}
	}
	JOINT lowerback
	{
		OFFSET 0.004439 0.124404 -0.038385
		CHANNELS 3 Zrotation Yrotation Xrotation
		JOINT upperback
		{
			OFFSET 0.004488 0.137956 0.026820
			CHANNELS 3 Zrotation Yrotation Xrotation
			JOINT chest
			{
				OFFSET -0.002265 0.056032 0.002855
				CHANNELS 3 Zrotation Yrotation Xrotation
				JOINT lowerneck
				{
					OFFSET -0.013390 0.211636 -0.033468
					CHANNELS 3 Zrotation Yrotation Xrotation
					JOINT upperneck
					{
						OFFSET 0.010113 0.088937 0.050410
						CHANNELS 3 Zrotation Yrotation Xrotation
						End Site
						{
							OFFSET 0.000000 0.000000 0.000000
						}
					}
				}
				JOINT lclavicle
				{
					OFFSET 0.071702 0.114000 -0.018898
					CHANNELS 3 Zrotation Yrotation Xrotation
					JOINT lshoulder
					{
						OFFSET 0.122921 0.045205 -0.019046
						CHANNELS 3 Zrotation Yrotation Xrotation
						JOINT lelbow
						{
							OFFSET 0.255332 -0.015649 -0.022946
							CHANNELS 3 Zrotation Yrotation Xrotation
							JOINT lwrist
							{
								OFFSET 0.265709 0.012698 -0.007375
								CHANNELS 3 Zrotation Yrotation Xrotation
								End Site
								{
									OFFSET 0.000000 0.000000 0.000000
								}
							}
						}
					}
				}
				JOINT rclavicle
				{
					OFFSET -0.082954 0.112472 -0.023707
					CHANNELS 3 Zrotation Yrotation Xrotation
					JOINT rshoulder
					{
						OFFSET -0.113228 0.046853 -0.008472
						CHANNELS 3 Zrotation Yrotation Xrotation
						JOINT relbow
						{
							OFFSET -0.260127 -0.014369 -0.031269
							CHANNELS 3 Zrotation Yrotation Xrotation
							JOINT rwrist
							{
								OFFSET -0.269108 0.006794 -0.006027
								CHANNELS 3 Zrotation Yrotation Xrotation
								End Site
								{
									OFFSET 0.000000 0.000000 0.000000
								}
							}
						}
					}
				}
			}
		}
	}
}
MOTION
Frames: 17
Frame Time: 0.033333
0.317899 -1.344623 0.985346 -56.866334 6.453906 94.259068 6.470835 4.020536 -10.941632 -9.296343 -4.274433 20.894594 -4.210442 13.002589 -26.030121 0.000000 -0.000000 0.000000 -0.793991 -3.007606 -30.799164 6.399010 -8.264050 10.455205 3.334239 -11.400481 4.113174 0.000000 -0.000000 0.000000 -2.930645 -0.263266 11.895494 2.141729 -0.464400 -2.412530 1.454604 -0.859011 0.618758 10.503240 -1.224250 -8.310237 10.504921 -12.121299 -2.231230 -25.586369 -4.625893 -4.058799 -48.076839 -7.785186 8.077649 16.970996 -10.691381 -21.975271 7.910277 -9.083318 12.198948 24.931137 14.269147 0.006001 46.808887 2.970629 6.097163 -3.223861 30.816829 -5.820318 -4.464177 9.460676 6.328347 
0.325874 -1.340142 0.987296 -57.437659 6.473968 93.969256 5.833888 3.593640 -10.064851 -7.942841 -4.520232 18.198568 2.194197 15.694137 -26.303377 0.000000 -0.000000 0.000000 -1.541600 -2.665163 -30.190065 6.046051 -6.970982 13.070839 3.567685 -12.013266 0.658929 0.000000 -0.000000 0.000000 -3.627526 -0.413615 12.145098 2.478028 -0.809914 -2.063895 1.757973 -0.898175 0.556206 9.906011 -2.385889 -8.435536 10.720105 -10.715607 -2.036076 -25.716378 -4.499340 -4.496223 -47.806525 -7.096874 7.449910 16.742873 -10.047533 -21.226702 5.449929 -7.742500 12.540985 24.754273 12.674252 -1.062489 46.848068 4.070269 6.436760 -1.454045 30.273799 -2.824057 -2.096626 8.542855 7.545312 
0.332166 -1.336426 0.988486 -58.049435 6.466917 93.615024 5.184637 2.875352 -8.763873 -6.199938 -4.304595 14.860708 9.017690 18.082648 -25.496745 0.000000 -0.000000 0.000000 -2.558923 -2.264937 -28.760504 5.634186 -7.373961 15.335503 3.408791 -13.549408 -2.006792 0.000000 -0.000000 0.000000 -4.025100 -0.505565 12.810334 2.571014 -1.002623 -2.504279 1.703757 -0.755400 0.582079 9.246804 -3.950886 -8.214850 11.584827 -8.997408 -1.781507 -25.307312 -3.804251 -4.818098 -48.236297 -7.030112 7.532777 16.969176 -9.967195 -20.406423 2.751099 -5.793335 12.280793 24.367797 10.794656 -1.683892 47.621747 5.227495 7.015141 -0.517247 29.643048 -0.585496 0.837855 7.124732 8.506709 
0.338693 -1.330468 0.989185 -58.683655 6.776607 93.250130 5.474802 2.786389 -8.976399 -6.181992 -4.296043 14.593819 9.158953 18.789428 -24.436833 0.000000 -0.000000 0.000000 -3.863852 -2.465586 -26.192566 4.537275 -8.756117 19.610175 2.164403 -16.184709 -6.969144 0.000000 -0.000000 0.000000 -3.826045 -0.510892 12.675825 2.522317 -1.249497 -3.211277 1.758235 -0.717892 1.355728 8.564202 -4.884185 -7.564321 12.055875 -7.756629 -1.868675 -25.361521 -3.212451 -4.808884 -48.269474 -7.825681 7.324649 16.775666 -10.925638 -19.697443 1.469832 -4.764355 11.396647 23.809482 8.639035 -2.999238 48.277435 6.207100 7.071601 1.586261 28.506989 2.479343 2.910694 5.693066 9.310748 
0.340538 -1.328446 0.989352 -58.918778 6.799897 93.131893 5.495147 2.779519 -8.992902 -6.193326 -4.345739 14.453001 9.048801 18.955492 -24.171957 0.000000 -0.000000 0.000000 -4.374229 -2.684407 -25.241159 4.189992 -9.142765 20.919945 1.986171 -17.040616 -8.425553 0.000000 -0.000000 0.000000 -3.816841 -0.458891 12.533091 2.513914 -1.337299 -3.294080 1.752406 -0.698552 1.481532 8.426096 -5.194388 -7.385117 12.198878 -7.443222 -1.832513 -25.344678 -3.088998 -4.768290 -48.281118 -8.160979 7.284400 16.659280 -11.333790 -19.505834 0.949672 -4.491846 11.228332 23.731488 8.186412 -3.240211 48.401551 6.397014 7.087700 2.032912 28.261264 3.083032 3.539531 5.314900 9.490731 
0.343699 -1.324279 0.989570 -59.440002 6.769238 92.930108 5.469824 2.849919 -8.966322 -6.231412 -4.524174 14.054475 8.581611 19.153233 -23.670603 0.000000 -0.000000 0.000000 -5.401049 -3.327546 -23.316046 3.451886 -9.757958 23.386895 1.780259 -18.547505 -11.040320 0.000000 -0.000000 0.000000 -3.810064 -0.298022 12.091548 2.486819 -1.525485 -3.215928 1.730016 -0.577064 1.488359 8.256890 -5.715340 -7.049497 12.358500 -6.995668 -1.684204 -25.414914 -3.066931 -4.653918 -48.171089 -8.881206 7.243729 16.324316 -12.289003 -19.123137 0.755947 -4.396111 11.109257 23.689434 7.797653 -3.386370 48.483503 6.516858 7.130673 2.536127 27.998672 3.739011 4.098155 4.916003 9.465975 
0.346273 -1.319882 0.989683 -60.054502 6.642719 92.726471 5.373950 3.040314 -8.864383 -6.219135 -4.658509 13.590853 8.108090 19.276135 -23.188906 0.000000 -0.000000 0.000000 -6.429866 -4.076576 -21.355299 2.749531 -10.035789 25.444486 1.673252 -19.657251 -13.099222 0.000000 -0.000000 0.000000 -3.868271 -0.132361 11.546074 2.483303 -1.715748 -2.925520 1.767730 -0.284397 1.278304 8.116369 -6.034653 -6.793680 12.195293 -6.737953 -1.374389 -25.650860 -3.333670 -4.529584 -47.928496 -9.589934 7.232688 15.921948 -13.422361 -18.719077 1.525039 -4.710880 11.073714 23.670081 7.884299 -3.216296 48.384631 6.534078 7.120277 2.722735 27.860411 4.063389 3.820625 4.814540 9.367279 
0.348243 -1.314872 0.989549 -60.784560 6.404952 92.509694 5.241765 3.266039 -8.776689 -6.106676 -4.477977 13.236845 7.988811 19.371356 -22.765101 0.000000 -0.000000 0.000000 -7.428314 -4.849781 -19.416181 2.186277 -9.832576 27.000331 1.636499 -20.092126 -14.545985 0.000000 -0.000000 0.000000 -3.913842 0.158286 11.043593 2.455028 -1.876219 -2.752836 1.785182 0.001430 1.039825 7.938093 -6.192401 -6.511843 11.863357 -6.568188 -0.970821 -25.863448 -3.667224 -4.467025 -47.723676 -10.341985 7.385090 15.461994 -14.623135 -18.361803 2.319515 -5.024042 10.928096 23.676051 8.028164 -3.034530 48.231772 6.692196 7.198601 2.802460 27.758410 4.261246 3.407140 4.763156 9.483110 
0.349441 -1.309169 0.989074 -61.604396 6.080746 92.320413 5.134567 3.458318 -8.758641 -5.949887 -3.952376 13.047573 8.082989 19.385768 -22.456074 0.000000 -0.000000 0.000000 -8.384641 -5.511636 -17.471651 1.861919 -9.242182 27.882336 1.495404 -19.816853 -15.118738 0.000000 -0.000000 0.000000 -3.835370 0.603502 10.640683 2.355772 -1.963352 -2.920699 1.704268 0.153250 0.835259 7.705160 -6.252437 -6.018442 11.503558 -6.410228 -0.571870 -26.039691 -3.866912 -4.460947 -47.599852 -11.124483 7.758165 14.992516 -15.815479 -17.939147 2.821122 -5.329090 10.749333 23.776616 8.052770 -2.938847 48.048319 6.952972 7.425613 2.838804 27.857766 4.275942 3.285778 4.767362 9.539605 
0.349620 -1.303074 0.988299 -62.423529 5.675951 92.106366 5.051573 3.574048 -8.692515 -5.814773 -3.284927 12.971172 8.230150 19.374322 -22.268419 0.000000 -0.000000 0.000000 -9.254251 -5.874203 -15.424876 1.888447 -8.241430 28.036088 1.397369 -19.053923 -14.632433 0.000000 -0.000000 0.000000 -3.692202 1.106930 10.202840 2.253099 -2.029385 -3.111374 1.534404 0.210209 0.620477 7.392354 -6.246291 -5.371469 11.113367 -6.175434 -0.169670 -26.212781 -3.914426 -4.443959 -47.508893 -11.868971 8.265696 14.473033 -17.121805 -17.274315 3.138271 -5.645141 10.472351 23.983615 7.916592 -2.886876 47.798253 7.380038 7.677645 2.928670 28.234242 4.180832 3.449771 4.816844 9.426904 
0.349005 -1.296699 0.987288 -63.223785 5.189238 91.815805 4.973873 3.684955 -8.589049 -5.740779 -2.613629 13.116901 8.332207 19.416609 -22.236784 0.000000 -0.000000 0.000000 -9.942932 -5.946319 -13.400855 2.055075 -7.004536 27.438391 1.806953 -18.111752 -13.776782 0.000000 -0.000000 0.000000 -3.616567 1.496726 9.446966 2.263478 -2.192982 -2.645929 1.338530 0.338632 0.256763 6.970564 -6.074813 -4.858234 10.543003 -5.766288 0.314247 -26.360303 -3.976663 -4.410608 -47.428490 -12.451985 8.825974 13.948609 -18.599192 -16.349209 3.481133 -5.885253 10.048714 24.220165 7.874796 -2.834798 47.463618 8.008262 7.962273 3.027026 28.783570 4.042330 3.333917 4.848725 9.282825 
0.347803 -1.289396 0.985985 -64.068377 4.661556 91.457469 4.989674 3.809107 -8.539699 -5.678391 -1.851088 13.587313 8.353634 19.448139 -22.379035 0.000000 -0.000000 0.000000 -10.365102 -6.092868 -11.623776 2.096531 -5.872926 25.909050 2.729446 -17.111550 -13.498218 0.000000 -0.000000 0.000000 -3.589618 1.812116 8.575875 2.331902 -2.437517 -1.824866 1.163206 0.495835 -0.116806 6.474869 -5.649046 -4.569758 9.858504 -5.278361 0.805066 -26.386843 -4.085215 -4.393489 -47.370677 -12.871828 9.469768 13.449518 -20.040069 -15.264772 3.897198 -6.133772 9.693684 24.461233 8.040687 -2.794456 47.189535 8.692388 8.367426 2.996798 29.520137 3.696720 2.728330 4.954021 9.015974 
0.346067 -1.281063 0.984532 -64.937207 4.141033 91.069829 5.155374 3.919443 -8.537044 -5.620718 -1.040689 14.255647 8.191661 19.428524 -22.552971 0.000000 -0.000000 0.000000 -10.684348 -6.557663 -10.028562 2.175010 -5.341550 23.452287 3.694710 -16.216010 -14.019827 0.000000 -0.000000 0.000000 -3.536970 2.080532 7.921852 2.379999 -2.676662 -1.252213 1.053492 0.620746 -0.330332 5.976289 -5.060954 -4.403759 9.131987 -4.906674 1.137302 -26.256941 -4.047703 -4.398636 -47.416221 -13.226650 10.160490 12.915595 -21.283633 -13.941243 4.107879 -6.468222 9.581351 24.590315 8.225703 -2.819361 47.175898 9.279680 8.755610 2.822495 30.389687 3.150089 2.078661 5.085000 8.466056 
0.343762 -1.271897 0.983239 -65.786223 3.682449 90.636549 5.514253 4.073854 -8.443507 -5.621139 -0.409023 14.921771 7.918266 19.459712 -22.621522 0.000000 -0.000000 0.000000 -10.947235 -7.009681 -8.245960 2.656602 -5.445654 20.302430 3.898450 -15.593845 -14.684463 0.000000 -0.000000 0.000000 -3.366293 2.358803 7.646983 2.359996 -2.834551 -1.137081 1.014330 0.644390 -0.366085 5.561650 -4.428033 -4.156281 8.440313 -4.752650 1.169775 -26.100837 -3.955476 -4.278431 -47.544485 -13.477716 10.687959 12.470494 -22.347480 -12.570360 3.919740 -6.884867 9.624932 24.609786 8.337976 -2.943171 47.364949 9.450304 8.839479 2.545310 31.431731 2.626913 1.862166 5.091597 7.760188 
0.341236 -1.262067 0.982406 -66.632536 3.317004 90.220653 6.062827 4.355416 -8.316679 -5.679993 0.035227 15.534097 7.462774 19.501702 -22.528516 0.000000 -0.000000 0.000000 -11.067277 -7.269292 -6.324284 3.428740 -5.898276 16.940954 3.553132 -15.039485 -15.071641 0.000000 -0.000000 0.000000 -3.023866 2.605972 7.575597 2.298724 -2.930946 -1.203381 0.988882 0.563364 -0.309324 5.322155 -3.714008 -3.883802 7.700603 -4.730006 0.969591 -26.009119 -3.724866 -4.240195 -47.875960 -13.576057 10.976159 12.298345 -23.196266 -11.756596 3.352264 -7.257952 9.863170 24.596196 8.414137 -3.217501 47.566858 9.298030 8.740907 2.385388 32.378211 2.083457 2.115602 4.988667 6.953569 
0.338660 -1.251436 0.982244 -67.533161 3.100761 89.882215 6.849005 4.754076 -8.218269 -5.715457 0.480342 16.081355 6.883658 19.429922 -22.309802 0.000000 -0.000000 0.000000 -10.918003 -7.434927 -4.709104 4.176390 -6.149682 13.985745 3.127778 -14.352769 -15.067437 0.000000 -0.000000 0.000000 -2.571894 2.776139 7.667036 2.270339 -2.932763 -1.451318 0.988874 0.425358 -0.157279 5.346822 -2.916346 -3.832059 6.952645 -4.760083 0.815113 -25.959854 -3.233909 -4.424087 -48.617981 -13.464633 11.100041 12.483786 -23.659710 -11.849043 2.873171 -7.629322 9.900686 24.608789 8.387881 -3.486559 47.626206 9.089567 8.620718 2.621352 32.996971 1.607155 2.512092 5.087782 6.221408 
0.336140 -1.239982 0.982814 -68.488178 3.014164 89.627692 7.864429 5.289992 -8.130819 -5.786113 0.942619 16.514683 6.194872 19.184435 -21.976442 0.000000 -0.000000 0.000000 -10.568819 -7.608072 -3.809078 4.755653 -6.022259 12.151828 2.833019 -13.538976 -14.911868 0.000000 -0.000000 0.000000 -2.128241 2.862748 7.865731 2.302849 -2.834846 -1.790838 1.021385 0.289825 0.060055 5.708863 -2.072052 -4.156506 6.245620 -4.757405 1.000830 -25.927514 -2.554177 -4.717270 -49.706916 -13.123608 11.076695 12.940278 -23.675115 -12.845130 2.353283 -7.759171 9.539285 24.640062 8.236748 -3.656722 47.491310 8.797927 8.576040 3.166411 33.328480 1.516612 3.076111 5.212028 5.738065 
